<svg width="861" height="484" viewBox="0 0 861 484" fill="none" xmlns="http://www.w3.org/2000/svg">
<g clip-path="url(#clip0_8_85)">
<rect width="861" height="484" fill="white"/>
<rect width="861" height="484" fill="#D9D9D9"/>
<rect y="424" width="861" height="60" fill="#BABABA"/>
<!-- Row A: 15 regular stalls (A-001..A-015), left?right -->
<rect x="35" y="198" width="40" height="200" fill="#84CE8F" data-spot-label="A-001"/>
<rect x="80" y="198" width="40" height="200" fill="#84CE8F" data-spot-label="A-002"/>
<rect x="125" y="198" width="40" height="200" fill="#84CE8F" data-spot-label="A-003"/>
<rect x="170" y="198" width="40" height="200" fill="#84CE8F" data-spot-label="A-004"/>
<rect x="215" y="198" width="40" height="200" fill="#84CE8F" data-spot-label="A-005"/>
<rect x="260" y="198" width="40" height="200" fill="#84CE8F" data-spot-label="A-006"/>
<rect x="305" y="198" width="40" height="200" fill="#84CE8F" data-spot-label="A-007"/>
<rect x="350" y="198" width="40" height="200" fill="#84CE8F" data-spot-label="A-008"/>
<rect x="395" y="198" width="40" height="200" fill="#84CE8F" data-spot-label="A-009"/>
<rect x="440" y="198" width="40" height="200" fill="#84CE8F" data-spot-label="A-010"/>
<rect x="485" y="198" width="40" height="200" fill="#84CE8F" data-spot-label="A-011"/>
<rect x="530" y="198" width="40" height="200" fill="#84CE8F" data-spot-label="A-012"/>
<rect x="575" y="198" width="40" height="200" fill="#84CE8F" data-spot-label="A-013"/>
<rect x="620" y="198" width="40" height="200" fill="#84CE8F" data-spot-label="A-014"/>
<rect x="665" y="198" width="40" height="200" fill="#84CE8F" data-spot-label="A-015"/>
<!-- Row B: 2 disabled stalls (B-001..B-002), rightmost -->
<rect x="725" y="198" width="40" height="200" fill="#A5CEDC" data-spot-label="B-001"/>
<rect x="785" y="198" width="40" height="200" fill="#A5CEDC" data-spot-label="B-002"/>
</g>
<defs>
<clipPath id="clip0_8_85">
<rect width="861" height="484" fill="white"/>
</clipPath>
</defs>
</svg>
