<svg width="633" height="484" viewBox="0 0 633 484" fill="none" xmlns="http://www.w3.org/2000/svg">
<g clip-path="url(#clip0_37_374)">
<rect width="633" height="484" fill="white"/>
<rect width="633" height="484" fill="#D9D9D9"/>
<rect x="213.785" y="480.321" width="17" height="200" transform="rotate(-93 213.785 480.321)" fill="#84CE8F" data-spot-label="A-001"/>
<rect x="209.785" y="457.877" width="17" height="200" transform="rotate(-93 209.785 457.877)" fill="#84CE8F" data-spot-label="A-002"/>
<rect x="208.785" y="435.433" width="17" height="200" transform="rotate(-93 208.785 435.433)" fill="#84CE8F" data-spot-label="A-003"/>
<rect x="206.785" y="412.989" width="17" height="200" transform="rotate(-93 206.785 412.989)" fill="#84CE8F" data-spot-label="A-004"/>
<rect x="204.785" y="390.545" width="17" height="200" transform="rotate(-93 204.785 390.545)" fill="#84CE8F" data-spot-label="A-005"/>
<rect x="202.785" y="368.102" width="17" height="200" transform="rotate(-93 202.785 368.102)" fill="#84CE8F" data-spot-label="A-006"/>
<rect x="201.785" y="345.658" width="17" height="200" transform="rotate(-93 201.785 345.658)" fill="#84CE8F" data-spot-label="A-007"/>
<rect x="198.785" y="323.214" width="17" height="200" transform="rotate(-93 198.785 323.214)" fill="#84CE8F" data-spot-label="A-008"/>
<rect x="196.89" y="300.77" width="17" height="200" transform="rotate(-93 196.89 300.77)" fill="#84CE8F" data-spot-label="A-009"/>
<rect x="194.89" y="278.326" width="17" height="200" transform="rotate(-93 194.89 278.326)" fill="#84CE8F" data-spot-label="A-010"/>
<rect x="193.89" y="255.882" width="17" height="200" transform="rotate(-93 193.89 255.882)" fill="#84CE8F" data-spot-label="A-011"/>
<rect x="190.89" y="233.438" width="17" height="200" transform="rotate(-93 190.89 233.438)" fill="#84CE8F" data-spot-label="A-012"/>
<rect x="188.89" y="210.995" width="17" height="200" transform="rotate(-93 188.89 210.995)" fill="#84CE8F" data-spot-label="A-013"/>
<rect x="186.89" y="188.551" width="17" height="200" transform="rotate(-93 186.89 188.551)" fill="#84CE8F" data-spot-label="A-014"/>
<rect x="185.89" y="166.107" width="17" height="200" transform="rotate(-93 185.89 166.107)" fill="#84CE8F" data-spot-label="A-015"/>
<rect x="183.89" y="143.663" width="17" height="200" transform="rotate(-93 183.89 143.663)" fill="#84CE8F" data-spot-label="A-016"/>
<rect x="182.89" y="121.219" width="17" height="200" transform="rotate(-93 182.89 121.219)" fill="#84CE8F" data-spot-label="A-017"/>
<rect x="179.89" y="98.7754" width="17" height="200" transform="rotate(-93 179.89 98.7754)" fill="#84CE8F" data-spot-label="A-018"/>
<rect x="177.89" y="76.3315" width="17" height="200" transform="rotate(-93 177.89 76.3315)" fill="#84CE8F" data-spot-label="A-019"/>
<rect x="176.89" y="53.8877" width="17" height="200" transform="rotate(-93 176.89 53.8877)" fill="#84CE8F" data-spot-label="A-020"/>
<rect x="174.89" y="31.4438" width="17" height="200" transform="rotate(-93 174.89 31.4438)" fill="#84CE8F" data-spot-label="A-021"/>
<!-- Added final slot to reach expected 22 spots -->
<rect x="172.89" y="9.0001" width="17" height="200" transform="rotate(-93 172.89 9.0001)" fill="#84CE8F" data-spot-label="A-022"/>
<rect x="-124.555" y="-16.2402" width="279.899" height="543.176" transform="rotate(-5 -124.555 -16.2402)" fill="#7E9E66"/>
</g>
<defs>
<clipPath id="clip0_37_374">
<rect width="633" height="484" fill="white"/>
</clipPath>
</defs>
</svg>
