<svg width="861" height="484" viewBox="0 0 861 484" fill="none" xmlns="http://www.w3.org/2000/svg">
<g clip-path="url(#clip0_37_327)">
<rect width="861" height="484" fill="white"/>
<rect width="861" height="484" fill="#D9D9D9"/>
<rect x="310" y="91" width="50" height="15" fill="#84CE8F" data-spot-label="A-001"/>
<rect x="310" y="125" width="50" height="15" fill="#84CE8F" data-spot-label="A-002"/>
<rect x="310" y="108" width="50" height="15" fill="#84CE8F" data-spot-label="A-003"/>
<rect x="310" y="142" width="50" height="15" fill="#84CE8F" data-spot-label="A-004"/>
<rect x="310" y="176" width="50" height="15" fill="#84CE8F" data-spot-label="A-005"/>
<rect x="310" y="159" width="50" height="15" fill="#84CE8F" data-spot-label="A-006"/>
<rect x="310" y="193" width="50" height="15" fill="#84CE8F" data-spot-label="A-007"/>
<rect x="310" y="227" width="50" height="15" fill="#84CE8F" data-spot-label="A-008"/>
<rect x="310" y="210" width="50" height="15" fill="#84CE8F" data-spot-label="A-009"/>
<rect x="310" y="244" width="50" height="15" fill="#84CE8F" data-spot-label="A-010"/>
<rect x="310" y="278" width="50" height="15" fill="#84CE8F" data-spot-label="A-011"/>
<rect x="310" y="261" width="50" height="15" fill="#84CE8F" data-spot-label="A-012"/>
<rect x="310" y="295" width="50" height="15" fill="#84CE8F" data-spot-label="A-013"/>
<rect x="310" y="329" width="50" height="15" fill="#84CE8F" data-spot-label="A-014"/>
<rect x="310" y="312" width="50" height="15" fill="#84CE8F" data-spot-label="A-015"/>
<rect x="310" y="346" width="50" height="15" fill="#84CE8F" data-spot-label="A-016"/>
<rect x="310" y="380" width="50" height="15" fill="#84CE8F" data-spot-label="A-017"/>
<rect x="310" y="363" width="50" height="15" fill="#84CE8F" data-spot-label="A-018"/>
<rect x="310" y="414" width="50" height="15" fill="#84CE8F" data-spot-label="A-019"/>
<rect x="310" y="397" width="50" height="15" fill="#84CE8F" data-spot-label="A-020"/>
<rect x="364" y="91" width="50" height="15" fill="#84CE8F" data-spot-label="A-021"/>
<rect x="364" y="125" width="50" height="15" fill="#84CE8F" data-spot-label="A-022"/>
<rect x="364" y="108" width="50" height="15" fill="#84CE8F" data-spot-label="A-023"/>
<rect x="364" y="142" width="50" height="15" fill="#84CE8F" data-spot-label="A-024"/>
<rect x="364" y="176" width="50" height="15" fill="#84CE8F" data-spot-label="A-025"/>
<rect x="364" y="159" width="50" height="15" fill="#84CE8F" data-spot-label="A-026"/>
<rect x="364" y="193" width="50" height="15" fill="#84CE8F" data-spot-label="A-027"/>
<rect x="364" y="227" width="50" height="15" fill="#84CE8F" data-spot-label="A-028"/>
<rect x="364" y="210" width="50" height="15" fill="#84CE8F" data-spot-label="A-029"/>
<rect x="364" y="244" width="50" height="15" fill="#84CE8F" data-spot-label="A-030"/>
<rect x="364" y="278" width="50" height="15" fill="#84CE8F" data-spot-label="A-031"/>
<rect x="364" y="261" width="50" height="15" fill="#84CE8F" data-spot-label="A-032"/>
<rect x="364" y="295" width="50" height="15" fill="#84CE8F" data-spot-label="A-033"/>
<rect x="364" y="329" width="50" height="15" fill="#84CE8F" data-spot-label="A-034"/>
<rect x="364" y="312" width="50" height="15" fill="#84CE8F" data-spot-label="A-035"/>
<rect x="364" y="346" width="50" height="15" fill="#84CE8F" data-spot-label="A-036"/>
<rect x="364" y="380" width="50" height="15" fill="#84CE8F" data-spot-label="A-037"/>
<rect x="364" y="363" width="50" height="15" fill="#84CE8F" data-spot-label="A-038"/>
<rect x="364" y="414" width="50" height="15" fill="#84CE8F" data-spot-label="A-039"/>
<rect x="364" y="397" width="50" height="15" fill="#84CE8F" data-spot-label="A-040"/>
<rect x="458" y="92" width="50" height="15" fill="#84CE8F" data-spot-label="A-041"/>
<rect x="458" y="126" width="50" height="15" fill="#84CE8F" data-spot-label="A-042"/>
<rect x="458" y="109" width="50" height="15" fill="#84CE8F" data-spot-label="A-043"/>
<rect x="458" y="143" width="50" height="15" fill="#84CE8F" data-spot-label="A-044"/>
<rect x="458" y="177" width="50" height="15" fill="#84CE8F" data-spot-label="A-045"/>
<rect x="458" y="160" width="50" height="15" fill="#84CE8F" data-spot-label="A-046"/>
<rect x="458" y="194" width="50" height="15" fill="#84CE8F" data-spot-label="A-047"/>
<rect x="458" y="228" width="50" height="15" fill="#84CE8F" data-spot-label="A-048"/>
<rect x="458" y="211" width="50" height="15" fill="#84CE8F" data-spot-label="A-049"/>
<rect x="458" y="245" width="50" height="15" fill="#84CE8F" data-spot-label="A-050"/>
<rect x="458" y="279" width="50" height="15" fill="#84CE8F" data-spot-label="A-051"/>
<rect x="458" y="262" width="50" height="15" fill="#84CE8F" data-spot-label="A-052"/>
<rect x="458" y="296" width="50" height="15" fill="#84CE8F" data-spot-label="A-053"/>
<rect x="458" y="330" width="50" height="15" fill="#84CE8F" data-spot-label="A-054"/>
<rect x="458" y="313" width="50" height="15" fill="#84CE8F" data-spot-label="A-055"/>
<rect x="512" y="92" width="50" height="15" fill="#84CE8F" data-spot-label="A-056"/>
<rect x="512" y="126" width="50" height="15" fill="#84CE8F" data-spot-label="A-057"/>
<rect x="512" y="109" width="50" height="15" fill="#84CE8F" data-spot-label="A-058"/>
<rect x="512" y="143" width="50" height="15" fill="#84CE8F" data-spot-label="A-059"/>
<rect x="512" y="177" width="50" height="15" fill="#84CE8F" data-spot-label="A-060"/>
<rect x="512" y="160" width="50" height="15" fill="#84CE8F" data-spot-label="A-061"/>
<rect x="512" y="194" width="50" height="15" fill="#84CE8F" data-spot-label="A-062"/>
<rect x="512" y="228" width="50" height="15" fill="#84CE8F" data-spot-label="A-063"/>
<rect x="512" y="211" width="50" height="15" fill="#84CE8F" data-spot-label="A-064"/>
<rect x="512" y="245" width="50" height="15" fill="#84CE8F" data-spot-label="A-065"/>
<rect x="512" y="279" width="50" height="15" fill="#84CE8F" data-spot-label="A-066"/>
<rect x="512" y="262" width="50" height="15" fill="#84CE8F" data-spot-label="A-067"/>
<rect x="588" y="93" width="50" height="15" fill="#84CE8F" data-spot-label="A-068"/>
<rect x="588" y="127" width="50" height="15" fill="#84CE8F" data-spot-label="A-069"/>
<rect x="588" y="110" width="50" height="15" fill="#84CE8F" data-spot-label="A-070"/>
<rect x="588" y="144" width="50" height="15" fill="#84CE8F" data-spot-label="A-071"/>
<rect x="588" y="178" width="50" height="15" fill="#84CE8F" data-spot-label="A-072"/>
<rect x="588" y="161" width="50" height="15" fill="#84CE8F" data-spot-label="A-073"/>
<rect x="588" y="195" width="50" height="15" fill="#84CE8F" data-spot-label="A-074"/>
<rect x="588" y="229" width="50" height="15" fill="#84CE8F" data-spot-label="A-075"/>
<rect x="588" y="212" width="50" height="15" fill="#84CE8F" data-spot-label="A-076"/>
<rect x="642" y="93" width="50" height="15" fill="#84CE8F" data-spot-label="A-077"/>
<rect x="792" y="91" width="50" height="15" fill="#84CE8F" data-spot-label="A-078"/>
<rect x="792" y="110" width="50" height="15" fill="#84CE8F" data-spot-label="A-079"/>
<rect x="792" y="129" width="50" height="15" fill="#84CE8F" data-spot-label="A-080"/>
<rect x="792" y="148" width="50" height="15" fill="#84CE8F" data-spot-label="A-081"/>
<rect x="792" y="167" width="50" height="15" fill="#84CE8F" data-spot-label="A-082"/>
<rect x="792" y="186" width="50" height="15" fill="#84CE8F" data-spot-label="A-083"/>
<rect x="708.828" y="401" width="50" height="15" transform="rotate(7 708.828 401)" fill="#84CE8F" data-spot-label="A-084"/>
<rect x="701.828" y="419" width="50" height="15" transform="rotate(7 701.828 419)" fill="#84CE8F" data-spot-label="A-085"/>
<rect x="695.828" y="437" width="50" height="15" transform="rotate(7 695.828 437)" fill="#84CE8F" data-spot-label="A-086"/>
<rect x="687.828" y="454" width="50" height="15" transform="rotate(7 687.828 454)" fill="#84CE8F" data-spot-label="A-087"/>
<rect x="722.828" y="366" width="50" height="15" transform="rotate(7 722.828 366)" fill="#84CE8F" data-spot-label="A-088"/>
<rect x="715.828" y="384" width="50" height="15" transform="rotate(7 715.828 384)" fill="#84CE8F" data-spot-label="A-089"/>
<rect x="748.828" y="296" width="50" height="15" transform="rotate(7 748.828 296)" fill="#84CE8F" data-spot-label="A-090"/>
<rect x="741.828" y="314" width="50" height="15" transform="rotate(7 741.828 314)" fill="#84CE8F" data-spot-label="A-091"/>
<rect x="734.828" y="332" width="50" height="15" transform="rotate(7 734.828 332)" fill="#84CE8F" data-spot-label="A-092"/>
<rect x="728.828" y="349" width="50" height="15" transform="rotate(7 728.828 349)" fill="#84CE8F" data-spot-label="A-093"/>
<rect x="764.828" y="261" width="50" height="15" transform="rotate(7 764.828 261)" fill="#84CE8F" data-spot-label="A-094"/>
<rect x="755.828" y="279" width="50" height="15" transform="rotate(7 755.828 279)" fill="#84CE8F" data-spot-label="A-095"/>
<rect x="642" y="127" width="50" height="15" fill="#84CE8F" data-spot-label="A-096"/>
<rect x="642" y="110" width="50" height="15" fill="#84CE8F" data-spot-label="A-097"/>
<rect x="642" y="144" width="50" height="15" fill="#84CE8F" data-spot-label="A-098"/>
<rect x="642" y="178" width="50" height="15" fill="#84CE8F" data-spot-label="A-099"/>
<rect x="642" y="161" width="50" height="15" fill="#84CE8F" data-spot-label="A-100"/>
<rect x="642" y="195" width="50" height="15" fill="#84CE8F" data-spot-label="A-101"/>
<rect x="642" y="229" width="50" height="15" fill="#84CE8F" data-spot-label="A-102"/>
<rect x="642" y="212" width="50" height="15" fill="#84CE8F" data-spot-label="A-103"/>
<rect x="169" y="125" width="50" height="15" fill="#84CE8F" data-spot-label="A-104"/>
<rect x="169" y="108" width="50" height="15" fill="#84CE8F" data-spot-label="A-105"/>
<rect x="323" y="57" width="50" height="15" transform="rotate(-90 323 57)" fill="#84CE8F" data-spot-label="A-106"/>
<rect x="347" y="57" width="50" height="15" transform="rotate(-90 347 57)" fill="#84CE8F" data-spot-label="A-107"/>
<rect x="371" y="57" width="50" height="15" transform="rotate(-90 371 57)" fill="#84CE8F" data-spot-label="A-108"/>
<rect x="395" y="57" width="50" height="15" transform="rotate(-90 395 57)" fill="#84CE8F" data-spot-label="A-109"/>
<rect x="419" y="55" width="50" height="15" transform="rotate(-90 419 55)" fill="#84CE8F" data-spot-label="A-110"/>
<rect x="443" y="55" width="50" height="15" transform="rotate(-90 443 55)" fill="#84CE8F" data-spot-label="A-111"/>
<rect x="467" y="55" width="50" height="15" transform="rotate(-90 467 55)" fill="#84CE8F" data-spot-label="A-112"/>
<rect x="491" y="55" width="50" height="15" transform="rotate(-90 491 55)" fill="#84CE8F" data-spot-label="A-113"/>
<rect x="515" y="55" width="50" height="15" transform="rotate(-90 515 55)" fill="#84CE8F" data-spot-label="A-114"/>
<rect x="539" y="55" width="50" height="15" transform="rotate(-90 539 55)" fill="#84CE8F" data-spot-label="A-115"/>
<rect x="563" y="55" width="50" height="15" transform="rotate(-90 563 55)" fill="#84CE8F" data-spot-label="A-116"/>
<rect x="587" y="55" width="50" height="15" transform="rotate(-90 587 55)" fill="#84CE8F" data-spot-label="A-117"/>
<rect x="611" y="55" width="50" height="15" transform="rotate(-90 611 55)" fill="#84CE8F" data-spot-label="A-118"/>
<rect x="635" y="55" width="50" height="15" transform="rotate(-90 635 55)" fill="#84CE8F" data-spot-label="A-119"/>
<rect x="659" y="55" width="50" height="15" transform="rotate(-90 659 55)" fill="#84CE8F" data-spot-label="A-120"/>
<rect x="683" y="55" width="50" height="15" transform="rotate(-90 683 55)" fill="#84CE8F" data-spot-label="A-121"/>
<rect x="707" y="55" width="50" height="15" transform="rotate(-90 707 55)" fill="#84CE8F" data-spot-label="A-122"/>
<rect x="731" y="55" width="50" height="15" transform="rotate(-90 731 55)" fill="#84CE8F" data-spot-label="A-123"/>
<rect x="755" y="55" width="50" height="15" transform="rotate(-90 755 55)" fill="#84CE8F" data-spot-label="A-124"/>
<rect x="779" y="55" width="50" height="15" transform="rotate(-90 779 55)" fill="#84CE8F" data-spot-label="A-125"/>
<rect x="803" y="55" width="50" height="15" transform="rotate(-90 803 55)" fill="#84CE8F" data-spot-label="A-126"/>
<rect x="827" y="55" width="50" height="15" transform="rotate(-90 827 55)" fill="#84CE8F" data-spot-label="A-127"/>
<rect x="299" y="57" width="50" height="15" transform="rotate(-90 299 57)" fill="#84CE8F" data-spot-label="A-128"/>
<rect x="169" y="142" width="50" height="15" fill="#84CE8F" data-spot-label="A-129"/>
<rect x="169" y="176" width="50" height="15" fill="#84CE8F" data-spot-label="A-130"/>
<rect x="169" y="159" width="50" height="15" fill="#84CE8F" data-spot-label="A-131"/>
<rect x="169" y="193" width="50" height="15" fill="#84CE8F" data-spot-label="A-132"/>
<rect x="169" y="227" width="50" height="15" fill="#84CE8F" data-spot-label="A-133"/>
<rect x="169" y="210" width="50" height="15" fill="#84CE8F" data-spot-label="A-134"/>
<rect x="169" y="244" width="50" height="15" fill="#84CE8F" data-spot-label="A-135"/>
<rect x="169" y="278" width="50" height="15" fill="#84CE8F" data-spot-label="A-136"/>
<rect x="169" y="261" width="50" height="15" fill="#84CE8F" data-spot-label="A-137"/>
<rect x="35" y="239" width="50" height="15" fill="#84CE8F" data-spot-label="A-138"/>
<rect x="35" y="221" width="50" height="15" fill="#84CE8F" data-spot-label="A-139"/>
<rect x="35" y="257" width="50" height="15" fill="#84CE8F" data-spot-label="A-140"/>
<rect x="35" y="293" width="50" height="15" fill="#84CE8F" data-spot-label="A-141"/>
<rect x="35" y="275" width="50" height="15" fill="#84CE8F" data-spot-label="A-142"/>
<rect x="35" y="311" width="50" height="15" fill="#84CE8F" data-spot-label="A-143"/>
<rect x="35" y="347" width="50" height="15" fill="#84CE8F" data-spot-label="A-144"/>
<rect x="35" y="329" width="50" height="15" fill="#84CE8F" data-spot-label="A-145"/>
<rect x="35" y="365" width="50" height="15" fill="#84CE8F" data-spot-label="A-146"/>
<rect x="35" y="383" width="50" height="15" fill="#84CE8F" data-spot-label="A-147"/>
<rect x="169" y="295" width="50" height="15" fill="#84CE8F" data-spot-label="A-148"/>
<rect x="169" y="329" width="50" height="15" fill="#84CE8F" data-spot-label="A-149"/>
<rect x="169" y="312" width="50" height="15" fill="#84CE8F" data-spot-label="A-150"/>
<rect x="169" y="363" width="50" height="15" fill="#84CE8F" data-spot-label="A-151"/>
<rect x="169" y="346" width="50" height="15" fill="#84CE8F" data-spot-label="A-152"/>
<rect x="223" y="125" width="50" height="15" fill="#84CE8F" data-spot-label="A-153"/>
<rect x="223" y="108" width="50" height="15" fill="#84CE8F" data-spot-label="A-154"/>
<rect x="169" y="91" width="50" height="15" fill="#84CE8F" data-spot-label="A-155"/>
<rect x="223" y="91" width="50" height="15" fill="#84CE8F" data-spot-label="A-156"/>
<rect x="223" y="142" width="50" height="15" fill="#84CE8F" data-spot-label="A-157"/>
<rect x="223" y="176" width="50" height="15" fill="#84CE8F" data-spot-label="A-158"/>
<rect x="223" y="159" width="50" height="15" fill="#84CE8F" data-spot-label="A-159"/>
<rect x="223" y="193" width="50" height="15" fill="#84CE8F" data-spot-label="A-160"/>
<rect x="223" y="227" width="50" height="15" fill="#84CE8F" data-spot-label="A-161"/>
<rect x="223" y="210" width="50" height="15" fill="#84CE8F" data-spot-label="A-162"/>
<rect x="223" y="244" width="50" height="15" fill="#84CE8F" data-spot-label="A-163"/>
<rect x="223" y="278" width="50" height="15" fill="#84CE8F" data-spot-label="A-164"/>
<rect x="223" y="261" width="50" height="15" fill="#84CE8F" data-spot-label="A-165"/>
<rect x="223" y="295" width="50" height="15" fill="#84CE8F" data-spot-label="A-166"/>
<rect x="223" y="329" width="50" height="15" fill="#84CE8F" data-spot-label="A-167"/>
<rect x="223" y="312" width="50" height="15" fill="#84CE8F" data-spot-label="A-168"/>
<rect x="223" y="363" width="50" height="15" fill="#84CE8F" data-spot-label="A-169"/>
<rect x="223" y="346" width="50" height="15" fill="#84CE8F" data-spot-label="A-170"/>
<rect x="868.546" y="150.173" width="124" height="371.065" transform="rotate(20 868.546 150.173)" fill="#7E9E66"/>
<rect x="854" width="7" height="191" fill="#BABABA"/>
<rect x="139" width="722" height="3" fill="#BABABA"/>
<rect x="-14" y="215" width="39" height="190" fill="#7E9E66"/>
<rect x="-21.8402" y="394.867" width="735.839" height="94.6872" transform="rotate(7 -21.8402 394.867)" fill="#BABABA"/>
<rect width="85" height="197" fill="#BABABA"/>
<rect y="2" width="17" height="197" fill="#898989"/>
</g>
<defs>
<clipPath id="clip0_37_327">
<rect width="861" height="484" fill="white"/>
</clipPath>
</defs>
</svg>
